<svg width="60" height="60" viewBox="0 0 60 60"><style>.a{fill:#9d0000;}.b{fill:#f00;}.c{fill:#ff5757;}</style><rect width="6" height="6" x="12" y="18" fill="#fff"/><rect width="6" height="6" x="18" y="6"/><rect width="6" height="6" x="12" y="6"/><rect width="6" height="6" x="24" y="12"/><rect width="6" height="6" x="30" y="12"/><rect width="6" height="6" x="36" y="6"/><rect width="6" height="6" x="42" y="6"/><rect width="6" height="6" x="48" y="6"/><rect width="6" height="6" x="54" y="12"/><rect width="6" height="6" x="54" y="18"/><rect width="6" height="6" x="6" y="6"/><rect width="6" height="6" y="12"/><rect width="6" height="6" y="18"/><rect width="6" height="6" y="24"/><rect width="6" height="6" x="54" y="24"/><rect width="6" height="6" x="6" y="30"/><rect width="6" height="6" x="12" y="36"/><rect width="6" height="6" x="18" y="42"/><rect width="6" height="6" x="24" y="48"/><rect width="6" height="6" x="30" y="48"/><rect width="6" height="6" x="36" y="42"/><rect width="6" height="6" x="42" y="36"/><rect width="6" height="6" x="48" y="30"/><rect width="6" height="6" x="6" y="12" class="a"/><rect width="6" height="6" x="12" y="12" class="b"/><rect width="6" height="6" x="18" y="12" class="b"/><rect width="6" height="6" x="6" y="18" class="a"/><rect width="6" height="6" x="12" y="18" class="b"/><rect width="6" height="6" x="18" y="18" class="b"/><rect width="6" height="6" x="6" y="24" class="a"/><rect width="6" height="6" x="12" y="24" class="b"/><rect width="6" height="6" x="18" y="24" class="b"/><rect width="6" height="6" x="12" y="30" class="a"/><rect width="6" height="6" x="18" y="30" class="b"/><rect width="6" height="6" x="18" y="36" class="a"/><rect width="6" height="6" x="24" y="36" class="b"/><rect width="6" height="6" x="24" y="42" class="a"/><rect width="6" height="6" x="30" y="42" class="b"/><rect width="6" height="6" x="30" y="36" class="b"/><rect width="6" height="6" x="24" y="30" class="b"/><rect width="6" height="6" x="30" y="30" class="b"/><rect width="6" height="6" x="30" y="24" class="b"/><rect width="6" height="6" x="24" y="24" class="b"/><rect width="6" height="6" x="24" y="18" class="b"/><rect width="6" height="6" x="30" y="18" class="b"/><rect width="6" height="6" x="36" y="24" class="b"/><rect width="6" height="6" x="42" y="30" class="b"/><rect width="6" height="6" x="36" y="30" class="b"/><rect width="6" height="6" x="36" y="36" class="b"/><rect width="6" height="6" x="42" y="24" class="b"/><rect width="6" height="6" x="48" y="24" class="c"/><rect width="6" height="6" x="36" y="18" class="b"/><rect width="6" height="6" x="42" y="18" class="b"/><rect width="6" height="6" x="48" y="18" class="c"/><rect width="6" height="6" x="48" y="12" class="c"/><rect width="6" height="6" x="42" y="12" class="c"/><rect width="6" height="6" x="36" y="12" class="c"/></svg>
